<svg version="1" xmlns="http://www.w3.org/2000/svg" width="1201.333" height="1201.333" viewBox="0 0 901.000000 901.000000"><path d="M639.8 1c-7.8 2-16.4 7.5-49.3 32l-33.9 25.2-11.5-2.6c-76-17.2-155.6-13.1-230.6 11.9C160.1 119 47.7 255.4 26.6 417c-9.5 72.2-.4 145.8 26.3 213.8 6.9 17.3 21.9 47.6 31.9 63.9 58.7 96.6 152.6 165.8 262.3 193.4 34.9 8.8 64.3 12.2 103.4 12.3 30.3 0 46.9-1.4 74-6 111.2-19.1 211.3-82.9 277.1-176.6C831 676 853.6 626 866 575.9c19.4-78.8 16.1-161.7-9.5-238.6-17.4-52.2-44.5-100-81.2-143-20.2-23.7-52.7-53.4-76.4-69.8l-8.5-6-4.8-41.5c-2.6-22.8-5.4-44.3-6.2-47.8C675.5 11.6 664.7 1.1 650 .4c-3.6-.2-8.2.1-10.2.6zM300.5 192.1c7.4 2 132.9 58 138.4 61.7 17.3 11.8 25.4 36.5 18.3 56.2-3.9 10.9-124.5 282.6-127.2 286.5-6.5 9.4-16.4 16.5-27.9 19.9-6.6 1.9-18.8 2.1-25.6.3-2.8-.7-34.3-14.3-70.2-30.2-50.9-22.5-66.4-29.8-70.8-33.2-14.1-11.1-21.6-32.7-17.2-49.8 1.6-6.1 122.8-281.4 127.4-289.4 5.3-9.2 14.9-16.7 26.3-20.8 7.3-2.5 21.3-3.1 28.5-1.2zm249.7 28c29 6.1 44.4 36.7 31.9 63.5-6 12.8-17.9 22-32.3 25-30 6.3-58-20.8-52.9-51.2 4.3-25.5 28.5-42.5 53.3-37.3zm-39.9 110.1c7.7 3.5 15.2 7.5 16.8 8.9 3.7 3.4 5.6 9.9 4.2 14.7-.5 2.1-31.5 71.4-68.9 154.1-74.9 165.9-69.3 154.9-79.4 155.9-4.3.4-6.4-.3-18.6-5.7-17.8-8-21.4-11.3-21.4-19.9 0-3.1 15-37.3 68.1-154.8 37.4-83 68.7-152 69.5-153.2 1.8-2.8 8.8-6.1 12.8-6.2 1.6 0 9.2 2.8 16.9 6.2zm96.6 7.9c5.7 1.3 132.2 57.2 138.4 61.1 9.4 6 17.2 17 20.2 28.3 2.1 8.1 1.9 20-.4 27.2-2.9 9.2-124.9 284.1-128.1 288.7-8.9 12.9-24.1 20.7-40.5 20.8-4.4 0-10-.5-12.5-1.2-5.9-1.6-131.9-57.3-137.2-60.6-9.2-5.9-17-16.5-20.4-27.9-2.1-7.3-2.2-21.1-.1-27.5 2.6-8 124.7-283.4 127.9-288.3 5.9-9.2 17-17.2 27.9-20.1 6.3-1.7 18.5-2 24.8-.5z"/><path d="M305.1 268.5c-23.3 5.2-43.2 24.7-49.1 48.1-5.9 22.8.6 46 17.5 62.9 13.7 13.8 30.1 20.2 49.5 19.2 23.2-1.1 44.4-14.4 54.7-34.3 5.1-9.8 7.1-16.5 7.9-26.3 2.5-30.2-16.9-59-46.1-68.1-9-2.9-25.3-3.6-34.4-1.5zM258 472.8c-17.4 4.5-30.2 18.8-33.2 36.7-3.2 18.9 7.1 38.4 24.8 47.1 6.6 3.3 8.4 3.8 17.2 4.2 8.1.3 10.7.1 16-1.7 12.5-4.3 21.4-12.1 27-23.8 10.5-22.1.9-49.1-21.2-59.4-10.8-5-19.7-5.9-30.6-3.1zM613.5 414.6c-3.8.8-10.8 3.4-15.5 5.6-6.9 3.3-10.1 5.7-17.1 12.7-7.1 7-9.4 10.2-12.7 17.1-5.2 11.1-6.7 17.4-6.6 29.5 0 25.7 13.5 47.3 36.6 59 19.7 9.9 45.3 8.5 64.4-3.7 7.3-4.6 17.9-15.5 21.7-22.2 8.1-14.4 10.7-32.3 7.2-48-4.9-22.1-21.8-40.8-43.4-47.9-10.6-3.6-24.4-4.4-34.6-2.1zM515 592.1c-2.5.5-7.4 2.3-11 4.1-21.7 10.6-31 37.8-20.4 59.6 5.7 11.6 18.1 21.5 30.5 24.2 28.4 6.3 54.8-15.1 54.9-44.2 0-27.9-26.2-49.1-54-43.7z"/></svg>