<svg id="Layer_1" data-name="Layer 1" xmlns="http://www.w3.org/2000/svg" xmlns:xlink="http://www.w3.org/1999/xlink" viewBox="0 0 796.97 229.09"><defs><style>.cls-1{filter:url(#luminosity-noclip);}.cls-2{filter:url(#luminosity-noclip-2);}.cls-3{fill:#fff;}.cls-4{mask:url(#mask);}.cls-5{mask:url(#mask-2);}.cls-6{isolation:isolate;}</style><filter id="luminosity-noclip" x="338.61" y="44.45" width="99.34" height="119.81" filterUnits="userSpaceOnUse" color-interpolation-filters="sRGB"><feFlood flood-color="#fff" result="bg"/><feBlend in="SourceGraphic" in2="bg"/></filter><mask id="mask" x="338.61" y="44.45" width="99.34" height="119.81" maskUnits="userSpaceOnUse"><path class="cls-1" d="M426.57,113.88H350.85a2,2,0,0,0-2,2v48.38l25.71-.26V137.95h23.8Z"/></mask><filter id="luminosity-noclip-2" x="253.79" y="0" width="84.84" height="194.57" filterUnits="userSpaceOnUse" color-interpolation-filters="sRGB"><feFlood flood-color="#fff" result="bg"/><feBlend in="SourceGraphic" in2="bg"/></filter><mask id="mask-2" x="253.79" y="0" width="84.84" height="194.57" maskUnits="userSpaceOnUse"><path class="cls-2" d="M295.13,192.57V115.92a2,2,0,0,0-2-2h-22a2,2,0,0,0-2,2v44.63Z"/></mask></defs><title>EDUshifts_now_plain</title><rect class="cls-3" x="281.06" y="80.51" width="110.99" height="17.7" rx="5" ry="5" transform="translate(116.71 359.4) rotate(-65.72)"/><g class="cls-4"><g id="_Group_" data-name=" Group "><path class="cls-3" d="M397.12,128.57a29.5,29.5,0,1,1-56.39-5.63l.14-.32c.12-.28.22-.55.35-.82L360,77.8c.26,3.08,3.64,32.82,34.66,43.2A29.32,29.32,0,0,1,397.12,128.57ZM370.4,146.46a12.8,12.8,0,1,0-14.9-10.3,12.8,12.8,0,0,0,14.9,10.3h0Z"/><path class="cls-3" d="M437.31,76a38.41,38.41,0,0,0-72.37-9.81h0l-.3.71c-.33.7-.63,1.41-.91,2.13L360,77.62l-.06.16c0,.68-5,30.66,34.66,43.2a38.43,38.43,0,0,0,42.69-45Zm-34,27.71a21.15,21.15,0,1,1,17-24.61,21.15,21.15,0,0,1-17,24.61Z"/></g></g><g class="cls-5"><g id="_Group_2" data-name=" Group 2"><path class="cls-3" d="M275.14,67.54c28.48,16.1,52.83-1.3,55.29-3.17l-20.14,43.44c-.12.27-.25.53-.38.81l-.15.31a29.5,29.5,0,1,1-34.63-41.39ZM290,106.78a12.81,12.81,0,1,0-17.63-4.18h0A12.8,12.8,0,0,0,290,106.79Z"/><path class="cls-3" d="M267.48,58.56a38.48,38.48,0,0,0,7.66,9c35.83,21,54.8-2.7,55.29-3.17l.07-.15,4-8.52c.35-.69.67-1.39,1-2.1l.33-.7h0a38.41,38.41,0,1,0-68.26,5.66Zm21.58-38.17a21.15,21.15,0,1,1-6.89,29.11,21.15,21.15,0,0,1,6.89-29.11Z"/></g></g><circle class="cls-3" cx="368.76" cy="18" r="14.08"/><g class="cls-6"><g class="cls-6"><path class="cls-3" d="M37.62,169.36V176H7.3v46.36H43.82v6.67H0V117.93H43.82v6.67H7.3v44.77Z"/><path class="cls-3" d="M80.17,117.93c17.15,0,24.61,11.27,24.61,27.62v55.88c0,16.35-7.46,27.62-24.61,27.62H55.72V117.93ZM80,222.38c12.38,0,17.46-8.41,17.46-20.64V145.23c0-12.22-5.24-20.64-17.46-20.64H63v97.79Z"/><path class="cls-3" d="M123.82,202.22c0,11.91,4.45,21.11,16.67,21.11s16.67-9.21,16.67-21.11v-84.3H164v84c0,15.88-6.67,28.1-23.65,28.1s-23.81-12.22-23.81-28.1v-84h7.3Z"/></g><g class="cls-6"><path class="cls-3" d="M200,116.66c17,0,25.72,10.16,25.72,27.94v3.49H209.23v-4.6c0-7.94-3.18-11-8.73-11s-8.73,3-8.73,11c0,22.86,34.13,27.15,34.13,58.9,0,17.78-8.89,27.94-26,27.94s-26-10.16-26-27.94v-6.83h16.51v7.94c0,7.94,3.49,10.8,9,10.8s9-2.86,9-10.8c0-22.86-34.13-27.15-34.13-58.9C174.31,126.82,183,116.66,200,116.66Z"/><path class="cls-3" d="M253.36,229.05H235.9V117.93h17.46v47.63h19.84V117.93H291V229.05H273.21V181.43H253.36Z"/><path class="cls-3" d="M370.36,167.3H392.9v15.88H370.36v45.88H352.9V117.93h46.2V133.8H370.36Z"/><path class="cls-3" d="M402.43,117.93h54V133.8H438.15v95.25H420.68V133.8H402.43Z"/><path class="cls-3" d="M487.52,116.66c17,0,25.72,10.16,25.72,27.94v3.49H496.72v-4.6c0-7.94-3.18-11-8.73-11s-8.73,3-8.73,11c0,22.86,34.13,27.15,34.13,58.9,0,17.78-8.89,27.94-26,27.94s-26-10.16-26-27.94v-6.83h16.51v7.94c0,7.94,3.49,10.8,9,10.8s9-2.86,9-10.8c0-22.86-34.13-27.15-34.13-58.9C461.8,126.82,470.53,116.66,487.52,116.66Z"/></g></g><path class="cls-3" d="M575.25,148.57v80.53H559.53V117.91h21.92l17.95,66.55V117.91H615V229.09H597Z"/><path class="cls-3" d="M626.08,144.6c0-17.79,9.37-28,26.52-28s26.52,10.17,26.52,28v57.81c0,17.79-9.37,28-26.52,28s-26.52-10.17-26.52-28Zm17.47,58.93c0,7.94,3.49,11,9.05,11s9.05-3,9.05-11v-60c0-7.94-3.49-11-9.05-11s-9.05,3-9.05,11Z"/><path class="cls-3" d="M729.16,169.85l-6.35,59.24h-24L686.43,117.91h17l9.37,87.67,8.42-87.67h16.84l8.74,88.31,9.05-88.31h15.25L758.7,229.09H735.51Z"/><path class="cls-3" d="M782,204.48l-2.22-40.18V117.91h17.47v46.38l-2.22,40.18ZM797,212.26v16.84H780.14V212.26Z"/></svg>