<svg version="1" xmlns="http://www.w3.org/2000/svg" width="1201.333" height="1201.333" viewBox="0 0 901.000000 901.000000"><path d="M637.5 2.4c-7.6 2.4-12.4 5.6-46.1 30.8C572.7 47 556.8 58.4 556 58.3c-.8 0-9.4-1.7-19-3.6-33.4-6.9-46.1-8.1-85.5-8.2-27.8 0-38 .4-49.5 1.8-86 10.7-161.7 43.5-227.5 98.6-12.8 10.6-40.5 38.6-51.7 52.1C33.9 306.1 2.4 447.4 37.6 582 73.7 720.4 179 832.8 315 878c42.9 14.3 79.8 20.7 126 21.7 47.1 1 85.1-3.8 128.1-16.2 64.5-18.7 123.8-52.2 172.6-97.7 138.2-128.9 175.7-332 92.5-501.3-31.1-63.3-79.9-120.6-136.1-160-6.6-4.6-8.1-6.2-8.6-8.8-.3-1.8-2.5-21-5-42.7-2.5-21.7-5.2-42.1-6-45.2-2.9-11.6-9.4-20.5-18-24.4-5.7-2.7-16.2-3.2-23-1zM298.1 191c4.9 1 122.8 52.2 136.2 59.3 8.6 4.5 16 12.4 21 22.5l4.2 8.6v26.1l-62.3 141c-34.3 77.5-63.5 143-65 145.4-10.5 18.4-33.9 28.6-54.2 23.7-9.4-2.2-135.9-58.5-141.8-63-13.9-10.7-21.6-29.5-19.2-46.7.5-3.6 1.3-7.5 1.6-8.5 1.9-5.1 123-278.7 125.6-283.6 3.5-6.5 12-15.1 19.3-19.4 9.5-5.5 22.8-7.6 34.6-5.4zm262.2 31.8c7.6 3.5 16.6 11.5 20.4 18 15.4 26.3 1.5 60.3-27.7 67.8-8.3 2.1-20.4 1.5-28-1.5-11-4.2-21.8-14.9-26.1-25.8-2-4.9-2.4-7.6-2.4-17.3 0-10.9.2-11.9 3.2-18.3 3.6-7.6 11.6-16.6 18.3-20.5 8.7-5.2 13.6-6.3 25.1-5.9 9.3.3 11.3.7 17.2 3.5zM511.2 330c13.6 6.2 17 8.5 19.4 13.2 3.7 7.1 5.9 1.7-65.7 160.5-36.9 81.8-68 150.4-69 152.4-2.2 4.4-7.5 7.9-12.8 8.6-3.2.4-6.3-.5-18.1-5.7-7.8-3.5-15.5-7.4-17-8.7-3.6-3-6.5-10.2-5.6-14.4.6-3.3 132.1-295.4 136.5-303.3 3.3-5.9 7.7-8.6 14.3-8.6 3.6 0 7.7 1.4 18 6zm94.8 7.5c8.3 1.8 133.4 57.1 140.9 62.2 15.4 10.6 23.8 31.7 19.9 50.1-2.4 11.4-124.8 288.1-131 296-5 6.5-14.2 13.1-22.5 16.2-7.1 2.7-19.9 3.7-27.3 2.1-5-1.1-126.6-54.1-137.3-59.9-6-3.2-15.9-13.6-19.2-20.2-5.2-10.3-6.9-24.3-4.3-34.8 1.1-4.7 121.6-278.3 126.6-287.7 6-11.1 19.7-21.2 32.5-24 8.1-1.8 13.8-1.8 21.7 0z"/><path d="M312 268c-15 1.8-27 7.8-38.6 19.5-12.9 12.9-18.8 27.2-18.8 45.5 0 18.7 5.9 32.7 19.3 46 13.5 13.4 27.5 19.2 46.1 19.2 18-.1 33.5-6.6 46-19.1 12.8-12.8 19-28 19-46.1s-6.2-33.3-19-46.1c-14.1-14.2-34.1-21.2-54-18.9zM255.8 473.9c-19.9 6.4-31.8 24-30.5 45.4.4 7.5 1 9.9 4 16 8.8 17.7 27.8 28 46.2 24.9 28.1-4.6 44.7-32.1 35.5-58.8-3.3-9.5-12.1-19.9-20.7-24.2-10.4-5.4-24-6.6-34.5-3.3zM611.6 415.6c-8.1 1.9-18.9 7.4-25.8 12.9-28.8 23.1-31.9 67.4-6.7 94.8 31.6 34.5 87.9 25.7 107.4-16.8 4.6-9.9 6-16.5 5.9-28 0-17.9-6.2-32.5-19.3-45.5-8.8-8.8-18-14-29.7-17-9.2-2.4-23-2.5-31.8-.4zM510.5 594c-12 3.8-23.1 14.2-27.5 25.7-3.4 8.7-3.9 21.8-1.1 30.1 5.7 16.6 18.8 27.6 36.3 30.3 6.2 1 8.6.9 15-.5 35.7-8 47.5-51.5 20.5-76.3-11.2-10.3-28.4-14-43.2-9.3z"/></svg>