<svg version="1" xmlns="http://www.w3.org/2000/svg" width="1201.333" height="1201.333" viewBox="0 0 901.000000 901.000000"><path d="M640 1.5c-9.6 2.7-13.6 5.3-48.9 31.5-32.8 24.4-34.7 25.7-37.6 24.9-7.7-2.3-33.5-7.1-47.8-8.9-80.5-10.3-160.2 1.9-234.7 36-87 39.7-161.6 112.7-204 199.5C9.4 402.6 8.5 537.5 64.7 657c10.6 22.4 29.2 53 44.8 73.5 28.5 37.5 65.9 72.7 104 98.2 31.1 20.7 71.6 40.3 105.8 51.2 98.9 31.5 205.1 26.5 300-14 122.1-52.2 214.4-160.7 246.2-289.4 9.3-37.4 12-60.6 12-103 0-34.5-.6-42.7-5-70.4-17.7-109.3-80.5-211.2-170-275.5-6-4.4-11.3-8.2-11.7-8.6-.4-.3-3-20.1-5.8-44-5.1-44.5-6.6-52.3-11.4-59.8-3-4.8-9.9-11-14.1-12.8-5.3-2.2-13.4-2.5-19.5-.9zm-340.5 190c7.1 1.9 131 56.4 137.6 60.6 6.2 4 14.1 12.4 17.2 18.5 6.3 12.4 7.6 27.5 3.4 39.4-5 14.1-125 283.7-128.4 288.2-7.8 10.7-20.3 18-34 20-13.5 2-15.4 1.3-87.8-30.7-35.7-15.7-66.7-29.9-68.9-31.4-17.3-11.9-25.8-35-20.2-54.6 2.3-7.6 123.9-282.7 127.7-288.7 11.1-17.3 33.8-26.4 53.4-21.3zm255.4 29.4c19.2 6 32 23.4 32.1 43.6 0 24.7-20.8 45.5-45.4 45.5-12.4 0-23.1-4.5-32.2-13.5-28.7-28.4-8.7-77.2 31.8-77.4 4.8-.1 9.9.6 13.7 1.8zm-44 109.2c18.5 8.3 21.8 11.6 20.8 21.3-.6 7.1-134.3 303.4-139 308.4-3.5 3.7-9.4 5.6-13.9 4.7-6.1-1.4-29.3-12.6-32-15.5-3.2-3.5-5.1-9.8-4.2-13.7 1.2-4.5 136.3-303.5 138.2-305.6 3.1-3.6 7.6-5.7 12.1-5.7 3.2 0 8 1.6 18 6.1zm94.3 7.4c4.3.9 28.9 11.2 70.5 29.5 35.1 15.5 65.6 29.2 67.8 30.5 9.3 5.3 18.2 16.8 22.1 28.5 2.6 7.7 2.4 22.5-.3 30-4.7 12.6-124.8 282.9-127.6 286.9-11.8 17.2-33.6 25.7-53.1 20.6-7.6-2-133.5-57.7-139.1-61.5-16.5-11.4-25.1-34-20.1-53 1.5-5.8 123-281.4 127.3-288.8 6.1-10.6 19.3-19.8 32.3-22.6 8.4-1.9 12-1.9 20.2-.1z"/><path d="M309.8 268c-26 4.7-45.8 22.4-53.4 47.6-2.5 8.2-2.5 26.6 0 34.8 4.1 13.7 12.8 26.5 23 34.3 12.9 9.6 25 13.7 40.6 13.7 18.7 0 32.8-6 46.5-19.8 12.9-13 18.8-27.4 18.8-45.6 0-18.6-5.9-32.7-19.3-46-9.2-9.3-16-13.4-27.4-16.9-7.8-2.4-21.7-3.4-28.8-2.1zM255.5 473.8c-11.9 4.1-21.5 12.6-26.5 23.5-13.3 28.6 5.5 60.8 37 63.4 12.9 1.1 24.9-3.5 34.6-13.1 7.1-7.1 10.9-14.5 12.6-24.5 3.6-21.3-9.7-42.8-30.5-49.3-7.6-2.3-20.4-2.4-27.2 0zM618.5 414.1c-21.4 3.2-40.4 16.6-49.3 34.9-5.5 11.3-7.3 18.5-7.4 30 0 11.3 1.9 19.6 7 30 4.9 10.1 17.7 23 27.8 28.3 42.8 22.1 93.3-6.7 96.1-54.8.7-11.7-1.4-21.4-6.8-32.5-3.4-6.8-5.9-10.2-12.8-17-5.3-5.3-10.9-9.8-14.6-11.7-11.5-6-28-9-40-7.2zM517.5 592.2c-9 1.2-19.2 6.6-25.7 13.7-23.4 25.3-11.6 64.9 21.9 73.6 30 7.8 59.3-18.9 54.6-49.6-3.9-24.6-26-41-50.8-37.7z"/></svg>